<?xml version="1.0" encoding="UTF-8" standalone="no"?>
<!-- Created with Inkscape (http://www.inkscape.org/) -->

<svg
   xmlns:dc="http://purl.org/dc/elements/1.1/"
   xmlns:cc="http://creativecommons.org/ns#"
   xmlns:rdf="http://www.w3.org/1999/02/22-rdf-syntax-ns#"
   xmlns:svg="http://www.w3.org/2000/svg"
   xmlns="http://www.w3.org/2000/svg"
   xmlns:sodipodi="http://sodipodi.sourceforge.net/DTD/sodipodi-0.dtd"
   xmlns:inkscape="http://www.inkscape.org/namespaces/inkscape"
   version="1.1"
   id="svg2"
   width="780.12634"
   height="253.64211"
   viewBox="0 0 780.12634 253.64211"
   sodipodi:docname="logo.svg"
   inkscape:version="0.92.4 (5da689c313, 2019-01-14)">
  <metadata
     id="metadata8">
    <rdf:RDF>
      <cc:Work
         rdf:about="">
        <dc:format>image/svg+xml</dc:format>
        <dc:type
           rdf:resource="http://purl.org/dc/dcmitype/StillImage" />
        <dc:title></dc:title>
      </cc:Work>
    </rdf:RDF>
  </metadata>
  <defs
     id="defs6" />
  <sodipodi:namedview
     pagecolor="#ffffff"
     bordercolor="#666666"
     borderopacity="1"
     objecttolerance="10"
     gridtolerance="10"
     guidetolerance="10"
     inkscape:pageopacity="0"
     inkscape:pageshadow="2"
     inkscape:window-width="1316"
     inkscape:window-height="740"
     id="namedview4"
     showgrid="false"
     inkscape:zoom="0.63266744"
     inkscape:cx="171.2529"
     inkscape:cy="-2.1110731"
     inkscape:window-x="0"
     inkscape:window-y="0"
     inkscape:window-maximized="1"
     inkscape:current-layer="svg2" />
  <path
     style="fill:#010101;stroke-width:1.0105263"
     d="m 38.172775,203.56164 c -5.229052,-2.83771 -6.407513,-8.7125 -2.486592,-12.39602 3.000909,-2.8192 7.85894,-2.86549 10.362819,-0.0987 1.826978,2.01879 1.83126,2.21663 0.112784,5.2109 -3.103733,5.40795 0.905678,6.29493 8.1749,1.80848 4.523269,-2.79169 8.604948,-9.5914 11.703315,-19.49668 2.755914,-8.81048 19.854739,-73.86605 19.854739,-75.54094 0,-0.54406 -3.090126,-0.98549 -6.898669,-0.98549 h -6.898668 l 0.427441,-2.91235 c 0.393416,-2.68051 0.827915,-2.95083 5.458155,-3.395738 2.78387,-0.267494 6.238241,-1.384251 7.734385,-2.500434 1.487019,-1.109376 5.204724,-6.72836 8.261566,-12.486633 9.1159,-17.171908 20.25211,-27.295442 31.76116,-28.872932 6.15642,-0.843832 11.0745,0.263625 14.6933,3.308651 5.91344,4.975823 3.15283,12.50154 -4.58585,12.50154 -4.48684,0 -6.88709,-2.892914 -5.47714,-6.601359 2.26112,-5.947205 -1.45147,-7.242549 -8.65631,-3.020232 -6.76211,3.962858 -12.74159,14.807614 -17.98078,32.611066 l -1.56123,5.305263 h 6.1168 c 5.16256,0 6.02111,0.249362 5.50343,1.598437 -0.33736,0.879142 -0.61338,2.221653 -0.61338,2.983361 0,0.99014 -1.77161,1.47068 -6.21508,1.68577 l -6.21509,0.30085 -6.406055,24.7579 c -7.618833,29.44499 -11.100034,39.8799 -17.355457,52.02305 -5.96994,11.58894 -15.489077,21.63281 -22.851491,24.11111 -6.0963,2.05213 -12.295552,2.09141 -15.963002,0.10116 z M 195.33611,168.98806 c -7.70516,-6.05495 -3.27237,-17.40911 6.79671,-17.40911 4.58166,0 9.06719,4.74911 9.06719,9.6 0,7.68864 -9.84816,12.53646 -15.8639,7.80911 z m 351.35864,0.64982 c 0,-2.87439 10.24985,-20.11855 16.93539,-28.4918 l 7.40347,-9.27239 -63.201,-0.26022 -63.20102,-0.26023 v -4.02692 -4.02692 l 63.20102,-0.26023 63.201,-0.26022 -7.62312,-9.54751 c -6.772,-8.48152 -16.71574,-25.289726 -16.71574,-28.255114 0,-0.606453 1.4917,-1.10264 3.31488,-1.10264 2.89402,0 5.04435,1.699992 16.93649,13.389474 7.49188,7.36421 18.27147,16.8 23.95466,20.96842 6.10499,4.47779 10.33907,8.28984 10.34773,9.31632 0.008,0.9991 -2.2397,3.18321 -5.2906,5.13994 -9.07541,5.82058 -20.02351,15.18906 -31.39562,26.8658 -9.72793,9.98852 -11.3145,11.22531 -14.4,11.22531 -1.90714,0 -3.46754,-0.51348 -3.46754,-1.14107 z m -289.81769,-1.99535 c 0.21261,-0.63781 2.99542,-1.96686 6.18404,-2.95343 7.9158,-2.4492 13.12556,-6.75752 36.44393,-30.13817 l 20.09451,-20.14815 -5.7598,-20.89098 C 305.68948,63.950496 304.4239,61.529391 296.3277,60.010533 c -1.84965,-0.346997 -3.19195,-1.145003 -2.9829,-1.773349 0.26231,-0.788389 6.84518,-1.227071 21.24116,-1.415507 18.32335,-0.239844 20.78932,-0.08619 20.27153,1.263157 -0.35596,0.92763 -1.85875,1.53622 -3.79338,1.53622 -4.36842,0 -7.68536,2.51458 -7.74015,5.867827 -0.0542,3.314678 8.36609,35.563749 9.28572,35.563749 1.14652,0 25.12488,-25.416239 28.21335,-29.905192 1.63155,-2.371369 2.96645,-5.48192 2.96645,-6.912335 0,-2.228508 -0.65086,-2.774834 -4.54736,-3.81699 -2.50106,-0.66893 -4.54737,-1.804027 -4.54737,-2.522437 0,-1.023261 4.26841,-1.306201 19.70526,-1.306201 15.7674,0 19.70527,0.269804 19.70527,1.350112 0,0.785294 -2.47289,2.037639 -5.91106,2.993533 -8.32083,2.313398 -13.93292,6.917861 -35.1192,28.81373 l -18.51684,19.13701 3.03724,11.49492 c 10.23645,38.7414 12.59122,43.3856 22.77212,44.91233 2.67767,0.40154 4.36513,1.14323 4.14001,1.81967 -0.26394,0.7931 -7.36853,1.22479 -23.26142,1.41339 -19.28161,0.22883 -22.79596,0.0488 -22.33822,-1.14397 0.29875,-0.77854 2.22037,-1.68537 4.27027,-2.01517 2.0499,-0.32982 4.80182,-1.35483 6.11538,-2.27781 2.02478,-1.42273 2.30671,-2.28635 1.85231,-5.67415 -0.77041,-5.74386 -9.00159,-35.13938 -9.83955,-35.13938 -0.38737,0 -8.26715,7.96947 -17.51058,17.70994 -19.51899,20.56853 -20.63472,23.13939 -10.9422,25.21279 1.85466,0.39674 3.16464,1.23436 2.94817,1.88511 -0.27303,0.82078 -6.21117,1.2533 -19.85038,1.44588 -14.29795,0.20187 -19.35827,-0.0328 -19.07427,-0.88488 z m 395.92296,-0.40042 c 0,-1.03189 1.04846,-1.52287 3.28421,-1.53798 6.02868,-0.0407 11.3017,-3.27657 13.71874,-8.41862 2.08074,-4.42657 13.31447,-41.1273 13.31137,-43.48836 -0.002,-1.58676 -12.5401,-41.778445 -14.43291,-46.265917 -1.67083,-3.961242 -4.5668,-6.341219 -9.06036,-7.446029 -1.52842,-0.375787 -2.77894,-1.316056 -2.77894,-2.089489 0,-1.15666 3.76632,-1.40624 21.22105,-1.40624 17.30331,0 21.22105,0.255803 21.22105,1.385602 0,0.894322 -1.74105,1.616561 -4.91044,2.036996 -6.75216,0.895706 -8.68537,3.199435 -7.92685,9.446114 0.61323,5.050089 9.45449,34.534693 10.78066,35.952253 0.92024,0.98366 25.20337,-33.09743 27.20007,-38.174982 1.84077,-4.681025 0.45301,-6.356004 -5.9723,-7.208352 -3.56377,-0.47275 -4.72479,-1.019869 -4.33267,-2.041719 0.74414,-1.939205 37.0957,-2.082645 36.44943,-0.143827 -0.22955,0.688648 -2.59463,1.867035 -5.25575,2.618639 -6.74569,1.905246 -10.44174,5.958125 -29.86095,32.743758 l -16.65464,22.972373 -5.25275,17.95394 c -3.25161,11.11407 -5.2769,19.99472 -5.31617,23.31077 -0.0613,5.17938 0.0527,5.40533 3.44096,6.82106 1.92741,0.80532 4.8832,1.46422 6.56842,1.46422 2.0499,0 3.06403,0.50169 3.06403,1.51579 0,1.30526 -3.36841,1.51579 -24.25263,1.51579 -20.88421,0 -24.25263,-0.21053 -24.25263,-1.51579 z m -457.6909,-59.71088 c -2.58872,-2.17827 -3.10911,-3.3472 -3.10911,-6.98386 0,-3.636663 0.52039,-4.805588 3.10911,-6.983854 4.35004,-3.660318 9.26538,-3.533965 13.13704,0.3377 2.18689,2.186882 2.95385,3.912551 2.95385,6.646154 0,2.73361 -0.76696,4.45927 -2.95385,6.64615 -3.87166,3.87167 -8.787,3.99803 -13.13704,0.33771 z"
     id="path817"
     inkscape:connector-curvature="0" />
</svg>
